<svg xmlns="http://www.w3.org/2000/svg" xmlns:xlink="http://www.w3.org/1999/xlink" version="1.1" x="0px" y="0px" viewBox="0 0 50 62.5" style="enable-background:new 0 0 50 50;" xml:space="preserve"><style type="text/css">
	.st0{fill:none;stroke:#000000;stroke-width:2;stroke-miterlimit:10;}
</style><g><path d="M25,17.3c6.2-2.2,9.2-8,9.2-10.8C34.2,3.7,32,1,29.3,1c-1.8,0-3.4,1-4.3,2.6C24.1,2,22.6,1,20.7,1c-2.7,0-4.9,2.7-4.9,5.5   C15.8,9.4,18.8,15.1,25,17.3z"/><path d="M33.3,20.7c-3.1,0-6,1-8.3,2.8c-2.3-1.7-5.2-2.8-8.3-2.8c-7.8,0-14.1,6.3-14.1,14.1C2.5,42.7,8.9,49,16.7,49   c3.1,0,6-1,8.3-2.8c2.3,1.7,5.2,2.8,8.3,2.8c7.8,0,14.1-6.3,14.1-14.1C47.5,27.1,41.1,20.7,33.3,20.7z M16.7,47   C10,47,4.6,41.5,4.6,34.9c0-6.7,5.4-12.1,12.1-12.1c2.5,0,4.8,0.8,6.7,2.1c-2.6,2.6-4.2,6.1-4.2,10c0,3.9,1.6,7.5,4.2,10   C21.5,46.2,19.2,47,16.7,47z M21.3,34.9c0-3.4,1.4-6.5,3.7-8.7c2.3,2.2,3.7,5.3,3.7,8.7c0,3.4-1.4,6.5-3.7,8.7   C22.7,41.4,21.3,38.3,21.3,34.9z M33.3,47c-2.5,0-4.8-0.8-6.7-2.1c2.6-2.6,4.2-6.1,4.2-10c0-3.9-1.6-7.5-4.2-10   c1.9-1.3,4.2-2.1,6.7-2.1c6.7,0,12.1,5.4,12.1,12.1C45.4,41.5,40,47,33.3,47z"/></g><text x="0" y="65" fill="#000000" font-size="5px" font-weight="bold" font-family="'Helvetica Neue', Helvetica, Arial-Unicode, Arial, Sans-serif">Created by Dinosoft Labs</text><text x="0" y="70" fill="#000000" font-size="5px" font-weight="bold" font-family="'Helvetica Neue', Helvetica, Arial-Unicode, Arial, Sans-serif">from the Noun Project</text></svg>