<svg xmlns="http://www.w3.org/2000/svg" xmlns:xlink="http://www.w3.org/1999/xlink" version="1.1" x="0px" y="0px" viewBox="NaN NaN NaN 101.00250000000001"><g transform="translate(-4.5, -9.599)"><path d="M68.478,9.599 C71.867,10.026 70.481,9.564 72.75,10.587 C76.337,12.658 77.566,17.245 75.495,20.832 C74.22,22.51 74.993,21.702 73.094,23.172 C75.04,26.544 76.987,29.915 78.933,33.286 C80.874,36.648 82.815,40.01 84.756,43.372 C86.955,42.447 85.865,42.706 88,42.491 C92.142,42.491 95.5,45.849 95.5,49.991 C95.5,54.133 92.142,57.491 88,57.491 C85.865,57.275 86.955,57.535 84.756,56.609 L73.116,76.771 C74.116,77.32 74.812,78.264 75.495,79.15 C77.566,82.737 76.337,87.324 72.75,89.395 C69.163,91.466 64.576,90.237 62.505,86.65 C61.689,84.707 62.002,85.78 61.678,83.399 L38.342,83.399 C38.347,84.424 38.379,83.799 38.119,85.264 C38.005,85.758 37.703,86.188 37.495,86.649 C35.424,90.237 30.837,91.466 27.25,89.395 C23.663,87.324 22.434,82.737 24.505,79.15 C25.104,78.178 25.835,77.264 26.85,76.712 L15.199,56.531 C12.979,57.43 14.055,57.142 12,57.491 C7.858,57.491 4.5,54.133 4.5,49.991 C4.5,45.849 7.858,42.491 12,42.491 L12,42.491 C14.09,42.756 13.005,42.49 15.228,43.4 L26.902,23.179 C25.074,21.702 25.858,22.499 24.505,20.832 C22.434,17.245 23.663,12.658 27.25,10.587 C29.519,9.564 28.133,10.026 31.522,9.599 C34.217,9.894 35.971,11.215 37.495,13.332 C38.311,15.275 37.998,14.201 38.322,16.582 L61.658,16.582 C61.653,15.557 61.62,16.182 61.881,14.717 C61.995,14.224 62.297,13.793 62.505,13.332 C64.224,10.582 65.566,10.379 68.478,9.599 z M52.753,74.097 C52.066,75.043 51.112,75.378 50,75.491 C48.674,75.475 48.12,74.969 47.247,74.097 L37.676,79.622 C38.219,80.439 38.273,81.456 38.338,82.399 L61.599,82.399 C61.695,81.457 61.859,80.467 62.401,79.667 L52.753,74.097 z M59.317,67.128 L53.172,70.676 C53.521,71.503 53.407,71.066 53.5,71.991 C53.41,72.88 53.521,72.478 53.214,73.208 L62.963,78.837 C63.924,77.418 63.328,78.157 64.842,76.698 L59.317,67.128 z M40.683,67.128 L35.158,76.698 C35.942,77.257 36.695,77.911 37.179,78.755 L46.786,73.208 C46.479,72.478 46.59,72.88 46.5,71.991 C46.593,71.066 46.479,71.503 46.828,70.676 L40.683,67.128 z M18.15,54.119 C17.609,54.887 16.814,55.49 16.111,56.111 L27.729,76.234 C28.636,75.895 29.547,75.664 30.478,75.417 L30.5,75.42 L30.5,64.44 C28.662,64.271 27.668,62.653 27.5,60.991 C27.592,60.075 27.479,60.503 27.817,59.7 L18.15,54.119 z M81.772,54.163 L72.183,59.7 C72.52,60.503 72.408,60.075 72.5,60.991 C72.419,62.666 71.271,64.262 69.5,64.44 L69.5,75.419 L69.522,75.417 C70.458,75.564 71.459,75.69 72.277,76.224 L83.827,56.218 C82.928,55.849 82.405,54.8 81.772,54.163 z M66.266,63.116 L60.183,66.628 L65.707,76.196 C67.199,75.561 66.289,75.861 68.5,75.513 L68.5,64.44 C67.463,64.406 66.921,63.77 66.266,63.116 z M33.734,63.116 C33.124,63.832 32.489,64.341 31.5,64.44 L31.5,75.542 C32.839,75.623 32.243,75.533 33.295,75.755 C33.435,75.801 34.025,76.073 34.293,76.195 L39.817,66.628 L33.734,63.116 z M53.244,56.609 C51.045,57.535 52.135,57.275 50,57.491 C47.865,57.275 48.955,57.535 46.756,56.609 L41.183,66.262 L47.324,69.808 C47.982,68.9 48.938,68.598 50,68.491 C51.256,68.5 51.846,68.977 52.676,69.808 L58.817,66.262 L53.244,56.609 z M42.55,50.49 L31.5,50.49 L31.5,57.541 C33.338,57.711 34.332,59.328 34.5,60.991 C34.409,61.889 34.521,61.478 34.203,62.232 L40.317,65.762 L45.827,56.218 C43.862,54.722 42.797,52.936 42.55,50.49 z M68.5,50.49 L57.45,50.49 C57.377,53.278 55.983,54.419 54.173,56.218 L59.683,65.762 L65.797,62.232 C65.479,61.478 65.59,61.889 65.5,60.991 C65.581,59.315 66.729,57.72 68.5,57.541 L68.5,50.49 z M80.55,50.49 L69.5,50.49 L69.5,57.541 C70.513,57.57 71.057,58.189 71.695,58.827 L81.381,53.234 C80.521,51.19 80.715,52.125 80.55,50.49 z M30.5,50.49 L19.45,50.49 C19.337,51.435 19.253,52.472 18.708,53.286 L28.305,58.827 C28.897,58.126 29.538,57.638 30.5,57.541 L30.5,50.49 z M59.683,34.219 L54.173,43.763 C56.138,45.259 57.203,47.045 57.45,49.49 L68.5,49.49 L68.5,42.44 C66.662,42.271 65.667,40.653 65.5,38.991 C65.59,38.092 65.479,38.503 65.797,37.749 L59.683,34.219 z M28.305,41.154 L18.537,46.794 C19.285,48.335 18.943,47.45 19.45,49.49 L30.5,49.49 L30.5,42.44 C29.487,42.411 28.943,41.792 28.305,41.154 z M71.695,41.154 C71.103,41.855 70.462,42.343 69.5,42.44 L69.5,49.49 L80.55,49.49 C80.715,47.856 80.521,48.791 81.381,46.747 L71.695,41.154 z M40.317,34.219 L34.203,37.749 C34.521,38.503 34.409,38.092 34.5,38.991 C34.419,40.666 33.271,42.262 31.5,42.44 L31.5,49.49 L42.55,49.49 C42.623,46.703 44.018,45.562 45.827,43.763 L40.317,34.219 z M27.705,23.789 L16.133,43.831 C16.902,44.386 17.677,45.023 18.099,45.892 L27.817,40.281 C27.479,39.478 27.592,39.906 27.5,38.991 C27.581,37.315 28.729,35.72 30.5,35.541 L30.5,24.576 L30.069,24.561 C29.244,24.475 28.493,24.046 27.705,23.789 z M72.267,23.741 C71.375,24.031 70.455,24.479 69.5,24.48 L69.5,35.541 C71.338,35.711 72.332,37.328 72.5,38.991 C72.408,39.906 72.52,39.478 72.183,40.281 L81.772,45.818 C82.144,44.92 83.191,44.396 83.827,43.763 C81.907,40.437 79.987,37.112 78.067,33.786 L72.936,24.898 L72.267,23.741 z M47.324,30.174 L41.183,33.719 L46.756,43.372 C48.955,42.447 47.865,42.706 50,42.491 C52.135,42.706 51.045,42.447 53.244,43.372 L58.817,33.719 L52.676,30.174 C52.018,31.081 51.062,31.384 50,31.491 C48.743,31.481 48.154,31.004 47.324,30.174 z M65.708,23.783 L60.183,33.353 L66.266,36.865 C66.876,36.149 67.511,35.641 68.5,35.541 L68.5,24.481 C67.549,24.478 66.602,24.082 65.708,23.783 z M34.292,23.783 C32.681,24.382 33.603,24.093 31.5,24.565 L31.5,35.541 C32.537,35.576 33.079,36.211 33.734,36.865 L39.817,33.353 L34.292,23.783 z M62.821,21.226 L53.214,26.773 C53.521,27.503 53.41,27.101 53.5,27.991 C53.407,28.915 53.521,28.478 53.173,29.306 L59.317,32.853 L64.842,23.283 C64.058,22.724 63.305,22.07 62.821,21.226 z M37.037,21.144 C36.076,22.563 36.671,21.824 35.158,23.283 L40.683,32.853 L46.827,29.305 C46.479,28.478 46.593,28.915 46.5,27.991 C46.59,27.101 46.479,27.503 46.786,26.773 L37.037,21.144 z M61.662,17.582 L38.401,17.582 C38.305,18.525 38.14,19.514 37.599,20.314 L47.247,25.885 C47.934,24.938 48.888,24.603 50,24.491 C51.326,24.507 51.88,25.012 52.753,25.884 L62.324,20.359 C61.781,19.542 61.727,18.525 61.662,17.582 z" fill="#000000"/></g><text x="NaN" y="NaN" fill="#000000" font-size="5px" font-weight="bold" font-family="'Helvetica Neue', Helvetica, Arial-Unicode, Arial, Sans-serif">Created by Chris Homan</text><text x="NaN" y="NaN" fill="#000000" font-size="5px" font-weight="bold" font-family="'Helvetica Neue', Helvetica, Arial-Unicode, Arial, Sans-serif">from the Noun Project</text></svg>