<svg xmlns:dc="http://purl.org/dc/elements/1.1/" xmlns:cc="http://creativecommons.org/ns#" xmlns:rdf="http://www.w3.org/1999/02/22-rdf-syntax-ns#" xmlns:svg="http://www.w3.org/2000/svg" xmlns="http://www.w3.org/2000/svg" xmlns:sodipodi="http://sodipodi.sourceforge.net/DTD/sodipodi-0.dtd" xmlns:inkscape="http://www.inkscape.org/namespaces/inkscape" viewBox="0 0 32 40.00000125" version="1.1" x="0px" y="0px"><g transform="translate(0,-1020.3622)"><path d="m 15.5,1023.8622 c -0.54933,0.2155 -1.08776,0.7806 -1.53516,1.6856 -0.27476,0.5557 -0.49953,1.2331 -0.66601,1.9824 l 2.20117,0 z" style="opacity:1;fill:#000000;fill-opacity:1;stroke:none;stroke-width:1;stroke-linecap:butt;stroke-linejoin:round;stroke-miterlimit:4;stroke-dasharray:none;stroke-opacity:1"/><path d="m 16.5,1023.8622 0,3.668 2.20117,0 c -0.16648,-0.7493 -0.39125,-1.4267 -0.66601,-1.9824 -0.4474,-0.905 -0.98583,-1.4701 -1.53516,-1.6856 z" style="opacity:1;fill:#000000;fill-opacity:1;stroke:none;stroke-width:1;stroke-linecap:butt;stroke-linejoin:round;stroke-miterlimit:4;stroke-dasharray:none;stroke-opacity:1"/><path d="m 13.53906,1024.2763 a 6.5,6.5 0 0 0 -3.41992,3.2539 l 2.14844,0 c 0.18582,-0.9302 0.46107,-1.7793 0.8164,-2.4981 0.13586,-0.2748 0.29409,-0.5175 0.45508,-0.7558 z" style="opacity:1;fill:#000000;fill-opacity:1;stroke:none;stroke-width:1;stroke-linecap:butt;stroke-linejoin:round;stroke-miterlimit:4;stroke-dasharray:none;stroke-opacity:1"/><path d="m 18.46484,1024.2841 c 0.15918,0.2364 0.31666,0.476 0.45118,0.748 0.35533,0.7188 0.63058,1.5679 0.8164,2.4981 l 2.15039,0 a 6.5,6.5 0 0 0 -3.41797,-3.2461 z" style="opacity:1;fill:#000000;fill-opacity:1;stroke:none;stroke-width:1;stroke-linecap:butt;stroke-linejoin:round;stroke-miterlimit:4;stroke-dasharray:none;stroke-opacity:1"/><path d="m 9.74609,1028.5302 a 6.5,6.5 0 0 0 -0.24609,1.75 6.5,6.5 0 0 0 0.24023,1.75 l 2.36915,0 C 12.04288,1031.4704 12,1030.895 12,1030.2958 c 0,-0.6108 0.0462,-1.1962 0.11523,-1.7656 z" style="opacity:1;fill:#000000;fill-opacity:1;stroke:none;stroke-width:1;stroke-linecap:butt;stroke-linejoin:round;stroke-miterlimit:4;stroke-dasharray:none;stroke-opacity:1"/><path d="m 13.12891,1028.5302 c -0.076,0.5651 -0.12891,1.1493 -0.12891,1.7656 0,0.6048 0.0517,1.1787 0.125,1.7344 l 2.375,0 0,-3.5 z" style="opacity:1;fill:#000000;fill-opacity:1;stroke:none;stroke-width:1;stroke-linecap:butt;stroke-linejoin:round;stroke-miterlimit:4;stroke-dasharray:none;stroke-opacity:1"/><path d="m 16.5,1028.5302 0,3.5 2.375,0 c 0.0733,-0.5557 0.125,-1.1296 0.125,-1.7344 0,-0.6163 -0.0529,-1.2005 -0.12891,-1.7656 z" style="opacity:1;fill:#000000;fill-opacity:1;stroke:none;stroke-width:1;stroke-linecap:butt;stroke-linejoin:round;stroke-miterlimit:4;stroke-dasharray:none;stroke-opacity:1"/><path d="m 19.88477,1028.5302 c 0.069,0.5694 0.11523,1.1548 0.11523,1.7656 0,0.5992 -0.0429,1.1746 -0.10937,1.7344 l 2.36132,0 a 6.5,6.5 0 0 0 0.24805,-1.75 6.5,6.5 0 0 0 -0.24023,-1.75 z" style="opacity:1;fill:#000000;fill-opacity:1;stroke:none;stroke-width:1;stroke-linecap:butt;stroke-linejoin:round;stroke-miterlimit:4;stroke-dasharray:none;stroke-opacity:1"/><path d="m 10.11914,1033.0302 a 6.5,6.5 0 0 0 3.38867,3.2344 c -0.14824,-0.2243 -0.29741,-0.4475 -0.42383,-0.7032 -0.35937,-0.7268 -0.63452,-1.5878 -0.82031,-2.5312 z" style="opacity:1;fill:#000000;fill-opacity:1;stroke:none;stroke-width:1;stroke-linecap:butt;stroke-linejoin:round;stroke-miterlimit:4;stroke-dasharray:none;stroke-opacity:1"/><path d="m 13.29102,1033.0302 c 0.16702,0.7625 0.39508,1.4499 0.67382,2.0137 0.4474,0.905 0.98583,1.4701 1.53516,1.6855 l 0,-3.6992 z" style="opacity:1;fill:#000000;fill-opacity:1;stroke:none;stroke-width:1;stroke-linecap:butt;stroke-linejoin:round;stroke-miterlimit:4;stroke-dasharray:none;stroke-opacity:1"/><path d="m 16.5,1033.0302 0,3.6992 c 0.54933,-0.2154 1.08776,-0.7805 1.53516,-1.6855 0.27874,-0.5638 0.5068,-1.2512 0.67382,-2.0137 z" style="opacity:1;fill:#000000;fill-opacity:1;stroke:none;stroke-width:1;stroke-linecap:butt;stroke-linejoin:round;stroke-miterlimit:4;stroke-dasharray:none;stroke-opacity:1"/><path d="m 19.73633,1033.0302 c -0.18579,0.9434 -0.46094,1.8044 -0.82031,2.5312 -0.12776,0.2585 -0.27769,0.4847 -0.42774,0.711 a 6.5,6.5 0 0 0 3.39258,-3.2422 z" style="opacity:1;fill:#000000;fill-opacity:1;stroke:none;stroke-width:1;stroke-linecap:butt;stroke-linejoin:round;stroke-miterlimit:4;stroke-dasharray:none;stroke-opacity:1"/><path d="m 18.9173,1043.5516 c 0.2145,-0.94 0.7293,-1.7844 1.4666,-2.4071 l 2.8811,-2.4326 1.3313,-3.6577 c 0.1899,-0.5219 0.7539,-0.7887 1.2821,-0.6037 l 0.385,0.1359 c 0.5185,0.1817 0.7348,0.7206 0.5957,1.2477 l -1.1449,4.3405 1.5041,-3.6792 c 0,0 0.1965,-5.2408 0.2087,-7.8078 l 0,0 0,0 c -0.017,-0.5178 0.3596,-0.9529 0.8772,-1.0109 l 0.011,-2e-4 c 0.5641,-0.058 1.0561,0.3475 1.0961,0.9123 l 0.5654,8.008 c 0.1448,2.0515 -0.3885,4.0933 -1.5167,5.8119 l -4.2365,6.4535 -6.0137,-2.1888 z" style="color:#000000;font-style:normal;font-variant:normal;font-weight:normal;font-stretch:normal;font-size:medium;line-height:normal;font-family:sans-serif;text-indent:0;text-align:start;text-decoration:none;text-decoration-line:none;text-decoration-style:solid;text-decoration-color:#000000;letter-spacing:normal;word-spacing:normal;text-transform:none;direction:ltr;writing-mode:lr-tb;baseline-shift:baseline;text-anchor:start;white-space:normal;clip-rule:nonzero;display:inline;overflow:visible;visibility:visible;opacity:1;isolation:auto;mix-blend-mode:normal;color-interpolation:sRGB;color-interpolation-filters:linearRGB;solid-color:#000000;solid-opacity:1;fill:#000000;fill-opacity:1;fill-rule:evenodd;stroke:none;stroke-width:0.99999988px;stroke-linecap:butt;stroke-linejoin:miter;stroke-miterlimit:4;stroke-dasharray:none;stroke-dashoffset:0;stroke-opacity:1;color-rendering:auto;image-rendering:auto;shape-rendering:auto;text-rendering:auto;enable-background:accumulate"/><path style="color:#000000;font-style:normal;font-variant:normal;font-weight:normal;font-stretch:normal;font-size:medium;line-height:normal;font-family:sans-serif;text-indent:0;text-align:start;text-decoration:none;text-decoration-line:none;text-decoration-style:solid;text-decoration-color:#000000;letter-spacing:normal;word-spacing:normal;text-transform:none;direction:ltr;writing-mode:lr-tb;baseline-shift:baseline;text-anchor:start;white-space:normal;clip-rule:nonzero;display:inline;overflow:visible;visibility:visible;opacity:1;isolation:auto;mix-blend-mode:normal;color-interpolation:sRGB;color-interpolation-filters:linearRGB;solid-color:#000000;solid-opacity:1;fill:#000000;fill-opacity:1;fill-rule:evenodd;stroke:none;stroke-width:0.99999988px;stroke-linecap:butt;stroke-linejoin:miter;stroke-miterlimit:4;stroke-dasharray:none;stroke-dashoffset:0;stroke-opacity:1;color-rendering:auto;image-rendering:auto;shape-rendering:auto;text-rendering:auto;enable-background:accumulate" d="m 13.08269,1043.5516 c -0.2145,-0.94 -0.7293,-1.7844 -1.4666,-2.4071 l -2.8811,-2.4326 -1.3313,-3.6577 c -0.1899,-0.5219 -0.7539,-0.7887 -1.2821,-0.6037 l -0.385,0.1359 c -0.5185,0.1817 -0.7348,0.7206 -0.5957,1.2477 l 1.1449,4.3405 -1.5041,-3.6792 c 0,0 -0.1965,-5.2408 -0.2087,-7.8078 l 0,0 0,0 c 0.016,-0.5178 -0.3596,-0.9529 -0.8772,-1.0109 l -0.011,-2e-4 c -0.5641,-0.058 -1.0561,0.3475 -1.0961,0.9123 l -0.5654,8.008 c -0.1448,2.0515 0.3885,4.0933 1.5167,5.8119 l 4.2365,6.4535 6.0137,-2.1888 z"/></g><text x="0" y="47.000001" fill="#000000" font-size="5px" font-weight="bold" font-family="'Helvetica Neue', Helvetica, Arial-Unicode, Arial, Sans-serif">Created by anbileru adaleru</text><text x="0" y="52.000001" fill="#000000" font-size="5px" font-weight="bold" font-family="'Helvetica Neue', Helvetica, Arial-Unicode, Arial, Sans-serif">from the Noun Project</text></svg>